# Blender 5.1.1
# www.blender.org
mtllib cardboard_box_02.mtl
o cardboard_box_02
v -0.200000 0.000000 0.170000
v -0.309220 0.406477 0.169219
v -0.198994 0.427508 0.309256
v -0.200000 0.328167 0.170000
v -0.203564 0.333155 0.169219
v -0.198994 0.333325 0.173805
v -0.201502 0.331051 0.169459
v -0.199339 0.331051 0.171502
v 0.200000 0.000000 0.170000
v 0.309220 0.406477 0.169219
v 0.198994 0.427508 0.309256
v 0.200000 0.328167 0.170000
v 0.203564 0.333155 0.169219
v 0.198994 0.333325 0.173805
v 0.201502 0.331051 0.169459
v 0.199339 0.331051 0.171502
v -0.200000 -0.000000 -0.170000
v -0.309220 0.406477 -0.169219
v -0.198994 0.427508 -0.309256
v -0.200000 0.328167 -0.170000
v -0.203564 0.333155 -0.169219
v -0.198994 0.333325 -0.173805
v -0.201502 0.331051 -0.169459
v -0.199339 0.331051 -0.171502
v 0.200000 -0.000000 -0.170000
v 0.309220 0.406477 -0.169219
v 0.198994 0.427508 -0.309256
v 0.200000 0.328167 -0.170000
v 0.203564 0.333155 -0.169219
v 0.198994 0.333325 -0.173805
v 0.201502 0.331051 -0.169459
v 0.199339 0.331051 -0.171502
v -0.198000 0.002000 0.168000
v -0.308080 0.408120 0.169219
v -0.198994 0.429150 0.308114
v -0.198136 0.329220 0.168136
v -0.202268 0.334691 0.169219
v -0.198994 0.334869 0.172523
v -0.199865 0.332239 0.169459
v -0.199339 0.332254 0.169873
v 0.198000 0.002000 0.168000
v 0.308080 0.408120 0.169219
v 0.198994 0.429150 0.308114
v 0.198136 0.329220 0.168136
v 0.202268 0.334691 0.169219
v 0.198994 0.334869 0.172523
v 0.199865 0.332239 0.169459
v 0.199339 0.332254 0.169873
v -0.198000 0.002000 -0.168000
v -0.308080 0.408120 -0.169219
v -0.198994 0.429150 -0.308114
v -0.198136 0.329220 -0.168136
v -0.202268 0.334691 -0.169219
v -0.198994 0.334869 -0.172523
v -0.199865 0.332239 -0.169459
v -0.199339 0.332254 -0.169873
v 0.198000 0.002000 -0.168000
v 0.308080 0.408120 -0.169219
v 0.198994 0.429150 -0.308114
v 0.198136 0.329220 -0.168136
v 0.202268 0.334691 -0.169219
v 0.198994 0.334869 -0.172523
v 0.199865 0.332239 -0.169459
v 0.199339 0.332254 -0.169873
vn -0.5701 -0.8216 -0.0000
vn -0.5736 -0.8192 -0.0000
vn -0.8138 -0.5811 -0.0000
vn -0.0000 -0.0000 1.0000
vn -0.0000 -0.0045 1.0000
vn 1.0000 -0.0045 -0.0000
vn 0.8138 -0.5812 -0.0000
vn 0.8138 -0.5811 -0.0000
vn 1.0000 -0.0045 -0.0001
vn -0.0000 -0.8210 0.5709
vn -0.0000 -0.8191 0.5736
vn -0.0000 -0.5935 0.8048
vn -1.0000 -0.0000 -0.0000
vn -1.0000 -0.0045 -0.0000
vn -1.0000 -0.0045 0.0001
vn 0.5736 -0.8192 -0.0000
vn 0.5701 -0.8216 -0.0000
vn -0.0000 -1.0000 -0.0000
vn 1.0000 -0.0000 -0.0000
vn -0.0000 -0.8191 -0.5736
vn -0.0000 -0.5935 -0.8048
vn -0.0000 -0.0045 -1.0000
vn -0.0000 -0.0000 -1.0000
vn -0.0000 -0.8210 -0.5709
vn 0.5741 0.8188 -0.0000
vn 0.5701 0.8216 -0.0000
vn 0.8075 0.5899 -0.0002
vn 0.8075 0.5899 0.0002
vn -0.0003 0.0057 -1.0000
vn -0.0001 0.0057 -1.0000
vn -0.0000 0.0004 -1.0000
vn -1.0000 0.0057 0.0001
vn -1.0000 0.0057 0.0004
vn -0.8075 0.5899 -0.0002
vn -0.8075 0.5899 0.0002
vn -0.0000 0.8210 -0.5709
vn -0.0000 0.8189 -0.5740
vn 0.0002 0.6007 -0.7995
vn -0.0002 0.6007 -0.7995
vn 1.0000 0.0004 -0.0000
vn 1.0000 0.0057 -0.0004
vn 1.0000 0.0057 -0.0001
vn -0.5701 0.8216 -0.0000
vn -0.5741 0.8188 -0.0000
vn -0.0000 1.0000 -0.0000
vn -1.0000 0.0004 -0.0000
vn 0.0002 0.6007 0.7995
vn -0.0002 0.6007 0.7995
vn -0.0000 0.8189 0.5740
vn -0.0000 0.0004 1.0000
vn 0.0003 0.0057 1.0000
vn 0.0001 0.0057 1.0000
vn -0.8216 0.5701 -0.0000
vn -0.0000 0.8210 0.5709
vn -0.0000 0.5710 0.8210
vn -0.0012 0.0013 1.0000
vn 0.8216 0.5701 -0.0000
vn -1.0000 0.0015 0.0014
vn 0.2088 0.0856 0.9742
vn 0.4133 0.1064 0.9043
vn -0.9077 0.1344 -0.3975
vn -0.9775 0.1078 -0.1814
vn -0.0000 0.5710 -0.8210
vn 0.0012 0.0013 1.0000
vn 1.0000 0.0015 0.0014
vn -0.4134 0.1064 0.9043
vn -0.2088 0.0856 0.9742
vn 0.9775 0.1078 -0.1814
vn 0.9077 0.1345 -0.3975
vn -0.0012 0.0013 -1.0000
vn -1.0000 0.0015 -0.0014
vn 0.4134 0.1064 -0.9043
vn 0.2088 0.0856 -0.9742
vn -0.9775 0.1078 0.1814
vn -0.9077 0.1345 0.3975
vn 0.0012 0.0013 -1.0000
vn 1.0000 0.0015 -0.0014
vn -0.2088 0.0856 -0.9742
vn -0.4133 0.1064 -0.9043
vn 0.9077 0.1344 0.3975
vn 0.9775 0.1078 0.1814
vt 0.561802 0.287412
vt 0.561803 0.518847
vt 0.473858 0.518847
vt 0.473857 0.287412
vt 0.471844 0.519012
vt 0.471842 0.287248
vt 0.977342 0.346550
vt 0.703806 0.346550
vt 0.703805 0.122137
vt 0.977341 0.122137
vt 0.004886 0.379072
vt 0.005255 0.376848
vt 0.237016 0.376846
vt 0.237386 0.379072
vt 0.704494 0.004881
vt 0.976653 0.004882
vt 0.976653 0.117700
vt 0.704494 0.117700
vt 0.704258 0.119913
vt 0.976889 0.119913
vt 0.245207 0.519382
vt 0.245207 0.286878
vt 0.469618 0.286878
vt 0.469618 0.519381
vt 0.236851 0.374831
vt 0.005420 0.374833
vt 0.005419 0.286890
vt 0.236850 0.286888
vt 0.483674 0.704879
vt 0.716181 0.704879
vt 0.716181 0.978416
vt 0.483674 0.978416
vt 0.004886 0.603480
vt 0.237385 0.603479
vt 0.117700 0.277730
vt 0.117698 0.005575
vt 0.119911 0.005339
vt 0.119913 0.277966
vt 0.122135 0.278418
vt 0.122135 0.004887
vt 0.346544 0.004887
vt 0.346544 0.278418
vt 0.004882 0.005576
vt 0.004884 0.277731
vt 0.005101 0.841376
vt 0.236535 0.841375
vt 0.236535 0.929448
vt 0.005102 0.929448
vt 0.004937 0.839027
vt 0.236699 0.839027
vt 0.472233 0.276750
vt 0.472230 0.005764
vt 0.695995 0.005855
vt 0.695998 0.276654
vt 0.475896 0.621681
vt 0.245940 0.621681
vt 0.245035 0.619302
vt 0.476802 0.619302
vt 0.354359 0.005177
vt 0.467294 0.005177
vt 0.467294 0.277336
vt 0.354359 0.277336
vt 0.469842 0.277572
vt 0.469840 0.004942
vt 0.235701 0.612887
vt 0.235794 0.836649
vt 0.005842 0.836648
vt 0.005936 0.612887
vt 0.245199 0.528880
vt 0.476637 0.528879
vt 0.476637 0.616955
vt 0.245200 0.616955
vt 0.994797 0.704880
vt 0.994797 0.934653
vt 0.723993 0.934653
vt 0.723993 0.704880
vt 0.475804 0.845448
vt 0.246033 0.845448
vt 0.568772 0.581033
vt 0.841400 0.581036
vt 0.841165 0.583582
vt 0.569008 0.583582
vt 0.569690 0.354879
vt 0.840487 0.354881
vt 0.840578 0.578645
vt 0.569594 0.578643
vt 0.313017 0.940327
vt 0.092936 0.940327
vt 0.092936 0.938885
vt 0.313017 0.938884
vt 0.841165 0.696515
vt 0.569008 0.696515
vt 0.276709 0.950253
vt 0.004878 0.950252
vt 0.004878 0.948886
vt 0.276709 0.948886
vt 0.009244 0.940327
vt 0.009244 0.938884
vt 0.093742 0.968459
vt 0.313494 0.968459
vt 0.313494 0.969899
vt 0.093742 0.969899
vt 0.392120 0.959973
vt 0.284895 0.959973
vt 0.284895 0.958532
vt 0.392120 0.958532
vt 0.007164 0.940327
vt 0.004882 0.940327
vt 0.004882 0.938884
vt 0.007164 0.938884
vt 0.396670 0.959973
vt 0.394392 0.959973
vt 0.394392 0.958532
vt 0.396670 0.958532
vt 0.276706 0.960252
vt 0.004879 0.960252
vt 0.004879 0.958886
vt 0.276706 0.958886
vt 0.010176 0.968459
vt 0.010176 0.969899
vt 0.248596 0.922061
vt 0.355828 0.922061
vt 0.355828 0.923501
vt 0.248596 0.923501
vt 0.005820 0.968459
vt 0.008099 0.968459
vt 0.008099 0.969899
vt 0.005820 0.969899
vt 0.358099 0.922061
vt 0.360378 0.922061
vt 0.360378 0.923501
vt 0.358099 0.923501
vt 0.396709 0.940327
vt 0.396709 0.938884
vt 0.396484 0.949969
vt 0.289430 0.949969
vt 0.289430 0.948531
vt 0.396484 0.948531
vt 0.401070 0.940327
vt 0.398788 0.940327
vt 0.398788 0.938884
vt 0.401070 0.938884
vt 0.287162 0.949969
vt 0.284887 0.949969
vt 0.284887 0.948531
vt 0.287162 0.948531
vt 0.397060 0.968459
vt 0.397060 0.969899
vt 0.355828 0.914245
vt 0.248602 0.914245
vt 0.248602 0.912804
vt 0.355828 0.912804
vt 0.399137 0.968459
vt 0.401416 0.968459
vt 0.401416 0.969899
vt 0.399137 0.969899
vt 0.360379 0.914245
vt 0.358100 0.914245
vt 0.358100 0.912804
vt 0.360379 0.912804
s 1
usemtl Material.001
f 2/1/1 18/2/1 21/3/2 5/4/2
f 5/4/2 21/3/2 23/5/3 7/6/3
f 1/7/4 9/8/4 12/9/5 4/10/5
f 28/11/6 31/12/7 15/13/8 12/14/9
f 11/15/10 3/16/10 6/17/11 14/18/11
f 4/10/5 12/9/5 16/19/12 8/20/12
f 17/21/13 1/22/13 4/23/14 20/24/15
f 20/24/15 4/23/14 7/6/3 23/5/3
f 13/25/16 29/26/16 26/27/17 10/28/17
f 15/13/8 31/12/7 29/26/16 13/25/16
f 1/29/18 17/30/18 25/31/18 9/32/18
f 25/33/19 28/11/6 12/14/9 9/34/19
f 8/20/12 16/19/12 14/18/11 6/17/11
f 22/35/20 30/36/20 32/37/21 24/38/21
f 20/39/22 28/40/22 25/41/23 17/42/23
f 27/43/24 30/36/20 22/35/20 19/44/24
f 24/38/21 32/37/21 28/40/22 20/39/22
f 37/45/25 53/46/25 50/47/26 34/48/26
f 39/49/27 55/50/28 53/46/25 37/45/25
f 36/51/29 44/52/30 41/53/31 33/54/31
f 60/55/32 44/56/33 47/57/34 63/58/35
f 43/59/36 46/60/37 38/61/37 35/62/36
f 40/63/38 48/64/39 44/52/30 36/51/29
f 49/65/40 52/66/41 36/67/42 33/68/40
f 52/66/41 55/50/28 39/49/27 36/67/42
f 42/69/43 58/70/43 61/71/44 45/72/44
f 45/72/44 61/71/44 63/58/35 47/57/34
f 49/73/45 33/74/45 41/75/45 57/76/45
f 57/77/46 41/78/46 44/56/33 60/55/32
f 38/61/37 46/60/37 48/64/39 40/63/38
f 56/79/47 64/80/48 62/81/49 54/82/49
f 49/83/50 57/84/50 60/85/51 52/86/52
f 18/87/53 2/88/53 34/89/53 50/90/53
f 59/91/54 51/92/54 54/82/49 62/81/49
f 52/86/52 60/85/51 64/80/48 56/79/47
f 3/93/55 11/94/55 43/95/55 35/96/55
f 2/88/4 5/97/56 37/98/56 34/89/4
f 10/99/57 26/100/57 58/101/57 42/102/57
f 6/103/58 3/104/13 35/105/13 38/106/58
f 7/107/59 4/108/60 36/109/60 39/110/59
f 5/97/56 7/107/59 39/110/59 37/98/56
f 4/111/61 8/112/62 40/113/62 36/114/61
f 8/112/62 6/103/58 38/106/58 40/113/62
f 27/115/63 19/116/63 51/117/63 59/118/63
f 13/119/64 10/99/4 42/102/4 45/120/64
f 11/121/19 14/122/65 46/123/65 43/124/19
f 12/125/66 15/126/67 47/127/67 44/128/66
f 15/126/67 13/119/64 45/120/64 47/127/67
f 16/129/68 12/130/69 44/131/69 48/132/68
f 14/122/65 16/129/68 48/132/68 46/123/65
f 21/133/70 18/87/23 50/90/23 53/134/70
f 19/135/13 22/136/71 54/137/71 51/138/13
f 20/139/72 23/140/73 55/141/73 52/142/72
f 23/140/73 21/133/70 53/134/70 55/141/73
f 24/143/74 20/144/75 52/145/75 56/146/74
f 22/136/71 24/143/74 56/146/74 54/137/71
f 26/100/23 29/147/76 61/148/76 58/101/23
f 30/149/77 27/150/19 59/151/19 62/152/77
f 31/153/78 28/154/79 60/155/79 63/156/78
f 29/147/76 31/153/78 63/156/78 61/148/76
f 28/157/80 32/158/81 64/159/81 60/160/80
f 32/158/81 30/149/77 62/152/77 64/159/81
