# Blender 5.1.1
# www.blender.org
mtllib kale.mtl
o Cylinder
v 0.000000 -1.000000 -1.000000
v 0.000000 1.000000 -1.000000
v 0.707107 -1.000000 -0.707107
v 0.707107 1.000000 -0.707107
v 1.000000 -1.000000 0.000000
v 1.000000 1.000000 0.000000
v 0.707107 -1.000000 0.707107
v 0.707107 1.000000 0.707107
v 0.000000 -1.000000 1.000000
v 0.000000 1.000000 1.000000
v -0.707107 -1.000000 0.707107
v -0.707107 1.000000 0.707107
v -1.000000 -1.000000 0.000000
v -1.000000 1.000000 0.000000
v -0.707107 -1.000000 -0.707107
v -0.707107 1.000000 -0.707107
v 0.707107 1.498868 -0.707107
v 0.000000 1.498868 -1.000000
v 1.000000 1.498868 0.000000
v 0.707107 1.498868 0.707107
v 0.000000 1.498868 1.000000
v -0.707107 1.498868 0.707107
v -1.000000 1.498868 0.000000
v -0.707107 1.498868 -0.707107
v 0.707107 1.000000 -0.707107
v 0.000000 1.000000 -1.000000
v 1.000000 1.000000 0.000000
v 0.707107 1.000000 0.707107
v 0.000000 1.000000 1.000000
v -0.707107 1.000000 0.707107
v -1.000000 1.000000 0.000000
v -0.707107 1.000000 -0.707107
v 0.707107 1.498868 -0.707107
v 0.000000 1.498868 -1.000000
v 1.000000 1.498868 0.000000
v 0.707107 1.498868 0.707107
v 0.000000 1.498868 1.000000
v -0.707107 1.498868 0.707107
v -1.000000 1.498868 0.000000
v -0.707107 1.498868 -0.707107
v 0.784855 1.554883 -0.784855
v -0.000000 1.554883 -1.109953
v 1.109953 1.554883 0.000000
v 0.784855 1.554883 0.784855
v -0.000000 1.554883 1.109953
v -0.784855 1.554883 0.784855
v -1.109953 1.554883 0.000000
v -0.784855 1.554883 -0.784855
v 0.784855 1.666003 -0.784855
v -0.000000 1.666003 -1.109953
v 1.109953 1.666003 0.000000
v 0.784855 1.666003 0.784855
v -0.000000 1.666003 1.109953
v -0.784855 1.666003 0.784855
v -1.109953 1.666003 0.000000
v -0.784855 1.666003 -0.784855
v 0.784855 1.666003 -0.784855
v -0.000000 1.666003 -1.109953
v 1.109953 1.666003 0.000000
v 0.784855 1.666003 0.784855
v -0.000000 1.666003 1.109953
v -0.784855 1.666003 0.784855
v -1.109953 1.666003 0.000000
v -0.784855 1.666003 -0.784855
v 0.818545 1.706624 -0.818545
v -0.000000 1.706624 -1.157597
v 1.157597 1.706624 0.000000
v 0.818545 1.706624 0.818545
v -0.000000 1.706624 1.157597
v -0.818545 1.706624 0.818545
v -1.157597 1.706624 0.000000
v -0.818545 1.706624 -0.818545
v 0.818545 1.863586 -0.818545
v -0.000000 1.863586 -1.157597
v 1.157597 1.863586 0.000000
v 0.818545 1.863586 0.818545
v -0.000000 1.863586 1.157597
v -0.818545 1.863586 0.818545
v -1.157597 1.863586 0.000000
v -0.818545 1.863586 -0.818545
v 0.868715 1.966777 -0.868715
v 0.000000 1.966777 -1.228549
v 1.228549 1.966777 0.000000
v 0.868715 1.966777 0.868715
v 0.000000 1.966777 1.228549
v -0.868715 1.966777 0.868715
v -1.228549 1.966777 0.000000
v -0.868715 1.966777 -0.868715
v 0.868715 2.060101 -0.868715
v 0.000000 2.060101 -1.228549
v 1.228549 2.060101 0.000000
v 0.868715 2.060101 0.868715
v 0.000000 2.060101 1.228549
v -0.868715 2.060101 0.868715
v -1.228549 2.060101 0.000000
v -0.868715 2.060101 -0.868715
v 0.984481 2.169183 -0.984481
v 0.000000 2.169183 -1.392267
v 1.392267 2.169183 0.000000
v 0.984481 2.169183 0.984481
v 0.000000 2.169183 1.392267
v -0.984481 2.169183 0.984481
v -1.392267 2.169183 0.000000
v -0.984481 2.169183 -0.984481
v 0.984481 2.527638 -0.984481
v 0.000000 2.527638 -1.392267
v 1.392267 2.527638 0.000000
v 0.984481 2.527638 0.984481
v 0.000000 2.527638 1.392267
v -0.984481 2.527638 0.984481
v -1.392267 2.527638 0.000000
v -0.984481 2.527638 -0.984481
v 0.895276 2.527638 -0.895276
v 0.000000 2.527638 -1.266112
v 1.266112 2.527638 0.000000
v 0.895276 2.527638 0.895276
v 0.000000 2.527638 1.266112
v -0.895276 2.527638 0.895276
v -1.266112 2.527638 0.000000
v -0.895276 2.527638 -0.895276
v 0.984481 2.977132 -0.984481
v 0.000000 2.977132 -1.392267
v 0.984481 2.977132 0.984481
v 1.392267 2.977132 0.000000
v -0.984481 2.977132 0.984481
v 0.000000 2.977132 1.392267
v -0.984481 2.977132 -0.984481
v -1.392267 2.977132 0.000000
v 0.895276 2.977132 -0.895276
v 0.000000 2.977132 -1.266112
v 0.895276 2.977132 0.895276
v 1.266112 2.977132 0.000000
v -0.895276 2.977132 0.895276
v 0.000000 2.977132 1.266112
v -0.895276 2.977132 -0.895276
v -1.266112 2.977132 0.000000
v -0.000000 -1.121947 -1.080928
v 0.764332 -1.121947 -0.764332
v 1.080928 -1.121947 0.000000
v 0.764332 -1.121947 0.764332
v -0.000000 -1.121947 1.080928
v -0.764332 -1.121947 0.764332
v -1.080928 -1.121947 0.000000
v -0.764332 -1.121947 -0.764332
v -0.000000 -1.327365 -1.292781
v 0.914134 -1.327365 -0.914134
v 1.292781 -1.327365 0.000000
v 0.914134 -1.327365 0.914134
v -0.000000 -1.327365 1.292781
v -0.914134 -1.327365 0.914134
v -1.292781 -1.327365 0.000000
v -0.914134 -1.327365 -0.914134
vn 0.3827 -0.0000 -0.9239
vn 0.9239 -0.0000 -0.3827
vn 0.9239 -0.0000 0.3827
vn 0.3827 -0.0000 0.9239
vn -0.3827 -0.0000 0.9239
vn -0.9239 -0.0000 0.3827
vn -0.0000 1.0000 -0.0000
vn -0.9239 -0.0000 -0.3827
vn -0.3827 -0.0000 -0.9239
vn 0.3262 0.5227 0.7876
vn -0.4461 -0.8757 -0.1848
vn -0.1848 -0.8757 0.4461
vn 0.4461 -0.8757 0.1848
vn 0.1848 -0.8757 -0.4461
vn -0.1848 -0.8757 -0.4461
vn -0.4461 -0.8757 0.1848
vn 0.1848 -0.8757 0.4461
vn 0.4461 -0.8757 -0.1848
vn -0.6266 -0.7349 0.2595
vn 0.2595 -0.7349 0.6266
vn 0.6266 -0.7349 -0.2595
vn -0.6266 -0.7349 -0.2595
vn -0.2595 -0.7349 0.6266
vn 0.6266 -0.7349 0.2595
vn 0.2595 -0.7349 -0.6266
vn -0.2595 -0.7349 -0.6266
vn -0.7798 -0.5362 -0.3230
vn -0.3230 -0.5362 0.7798
vn 0.7798 -0.5362 0.3230
vn 0.3230 -0.5362 -0.7798
vn -0.3230 -0.5362 -0.7798
vn -0.7798 -0.5362 0.3230
vn 0.3230 -0.5362 0.7798
vn 0.7798 -0.5362 -0.3230
vn -0.2238 -0.8111 -0.5404
vn -0.5404 -0.8111 0.2238
vn 0.2238 -0.8111 0.5404
vn 0.5404 -0.8111 -0.2238
vn -0.5404 -0.8111 -0.2238
vn -0.2238 -0.8111 0.5404
vn 0.5404 -0.8111 0.2238
vn 0.2238 -0.8111 -0.5404
vn -0.0000 -0.0000 1.0000
vn -0.0000 -0.0000 -1.0000
vn 0.7071 -0.0000 -0.7071
vn -0.7071 -0.0000 -0.7071
vn -1.0000 -0.0000 -0.0000
vn -0.7071 -0.0000 0.7071
vn 1.0000 -0.0000 -0.0000
vn 0.7071 -0.0000 0.7071
vn -0.6689 0.6898 -0.2771
vn -0.7876 0.5227 -0.3262
vn 0.7876 0.5227 -0.3262
vn -0.3262 0.5227 0.7876
vn -0.3262 0.5227 -0.7876
vn 0.3262 0.5227 -0.7876
vn 0.7876 0.5227 0.3262
vn -0.7876 0.5227 0.3262
vn -0.0000 -1.0000 -0.0000
vn -0.2771 0.6898 0.6689
vn 0.6689 0.6898 0.2771
vn 0.2771 0.6898 -0.6689
vn -0.2771 0.6898 -0.6689
vn -0.6689 0.6898 0.2771
vn 0.2771 0.6898 0.6689
vn 0.6689 0.6898 -0.2771
vt 1.000000 0.500000
vt 1.000000 1.000000
vt 0.875000 1.000000
vt 0.875000 0.500000
vt 0.750000 1.000000
vt 0.750000 0.500000
vt 0.625000 1.000000
vt 0.625000 0.500000
vt 0.500000 1.000000
vt 0.500000 0.500000
vt 0.375000 1.000000
vt 0.375000 0.500000
vt 0.250000 1.000000
vt 0.250000 0.500000
vt 0.419706 0.419706
vt 0.490000 0.250000
vt 0.125000 1.000000
vt 0.125000 0.500000
vt 0.000000 1.000000
vt 0.000000 0.500000
vt 0.080294 0.419706
vt 0.010000 0.250000
vt 0.250000 0.490000
vt 0.419706 0.080294
vt 0.250000 0.010000
vt 0.080294 0.080294
vt 0.750000 0.490000
vt 0.919706 0.419706
vt 0.990000 0.250000
vt 0.919706 0.080294
vt 0.750000 0.010000
vt 0.580294 0.080294
vt 0.510000 0.250000
vt 0.580294 0.419706
s 0
f 1/1/1 2/2/1 4/3/1 3/4/1
f 3/4/2 4/3/2 6/5/2 5/6/2
f 5/6/3 6/5/3 8/7/3 7/8/3
f 7/8/4 8/7/4 10/9/4 9/10/4
f 9/10/5 10/9/5 12/11/5 11/12/5
f 11/12/6 12/11/6 14/13/6 13/14/6
f 17/15/7 19/16/7 35/16/7 33/15/7
f 13/14/8 14/13/8 16/17/8 15/18/8
f 15/18/9 16/17/9 2/19/9 1/20/9
f 7/8/10 9/10/10 141/10/10 140/8/10
f 24/21/11 23/22/11 47/22/11 48/21/11
f 14/13/7 12/11/7 30/11/7 31/13/7
f 18/23/7 17/15/7 33/15/7 34/23/7
f 24/21/7 18/23/7 34/23/7 40/21/7
f 4/3/7 2/2/7 26/2/7 25/3/7
f 2/19/7 16/17/7 32/17/7 26/19/7
f 8/7/7 6/5/7 27/5/7 28/7/7
f 23/22/7 24/21/7 40/21/7 39/22/7
f 27/5/2 25/3/2 33/3/2 35/5/2
f 30/11/5 29/9/5 37/9/5 38/11/5
f 26/19/9 32/17/9 40/17/9 34/19/9
f 25/3/1 26/2/1 34/2/1 33/3/1
f 28/7/3 27/5/3 35/5/3 36/7/3
f 31/13/6 30/11/6 38/11/6 39/13/6
f 29/9/4 28/7/4 36/7/4 37/9/4
f 32/17/8 31/13/8 39/13/8 40/17/8
f 10/9/7 8/7/7 28/7/7 29/9/7
f 19/16/7 20/24/7 36/24/7 35/16/7
f 20/24/7 21/25/7 37/25/7 36/24/7
f 6/5/7 4/3/7 25/3/7 27/5/7
f 16/17/7 14/13/7 31/13/7 32/17/7
f 21/25/7 22/26/7 38/26/7 37/25/7
f 12/11/7 10/9/7 29/9/7 30/11/7
f 22/26/7 23/22/7 39/22/7 38/26/7
f 46/26/5 45/25/5 53/25/5 54/26/5
f 22/26/12 21/25/12 45/25/12 46/26/12
f 20/24/13 19/16/13 43/16/13 44/24/13
f 17/15/14 18/23/14 42/23/14 41/15/14
f 18/23/15 24/21/15 48/21/15 42/23/15
f 23/22/16 22/26/16 46/26/16 47/22/16
f 21/25/17 20/24/17 44/24/17 45/25/17
f 19/16/18 17/15/18 41/15/18 43/16/18
f 56/21/7 55/22/7 63/22/7 64/21/7
f 44/24/3 43/16/3 51/16/3 52/24/3
f 41/15/1 42/23/1 50/23/1 49/15/1
f 42/23/9 48/21/9 56/21/9 50/23/9
f 47/22/6 46/26/6 54/26/6 55/22/6
f 45/25/4 44/24/4 52/24/4 53/25/4
f 43/16/2 41/15/2 49/15/2 51/16/2
f 48/21/8 47/22/8 55/22/8 56/21/8
f 63/22/19 62/26/19 70/26/19 71/22/19
f 54/26/7 53/25/7 61/25/7 62/26/7
f 52/24/7 51/16/7 59/16/7 60/24/7
f 49/15/7 50/23/7 58/23/7 57/15/7
f 50/23/7 56/21/7 64/21/7 58/23/7
f 55/22/7 54/26/7 62/26/7 63/22/7
f 53/25/7 52/24/7 60/24/7 61/25/7
f 51/16/7 49/15/7 57/15/7 59/16/7
f 65/15/1 66/23/1 74/23/1 73/15/1
f 61/25/20 60/24/20 68/24/20 69/25/20
f 59/16/21 57/15/21 65/15/21 67/16/21
f 64/21/22 63/22/22 71/22/22 72/21/22
f 62/26/23 61/25/23 69/25/23 70/26/23
f 60/24/24 59/16/24 67/16/24 68/24/24
f 57/15/25 58/23/25 66/23/25 65/15/25
f 58/23/26 64/21/26 72/21/26 66/23/26
f 80/21/27 79/22/27 87/22/27 88/21/27
f 66/23/9 72/21/9 80/21/9 74/23/9
f 71/22/6 70/26/6 78/26/6 79/22/6
f 69/25/4 68/24/4 76/24/4 77/25/4
f 67/16/2 65/15/2 73/15/2 75/16/2
f 72/21/8 71/22/8 79/22/8 80/21/8
f 70/26/5 69/25/5 77/25/5 78/26/5
f 68/24/3 67/16/3 75/16/3 76/24/3
f 83/16/2 81/15/2 89/15/2 91/16/2
f 78/26/28 77/25/28 85/25/28 86/26/28
f 76/24/29 75/16/29 83/16/29 84/24/29
f 73/15/30 74/23/30 82/23/30 81/15/30
f 74/23/31 80/21/31 88/21/31 82/23/31
f 79/22/32 78/26/32 86/26/32 87/22/32
f 77/25/33 76/24/33 84/24/33 85/25/33
f 75/16/34 73/15/34 81/15/34 83/16/34
f 90/23/35 96/21/35 104/21/35 98/23/35
f 88/21/8 87/22/8 95/22/8 96/21/8
f 86/26/5 85/25/5 93/25/5 94/26/5
f 84/24/3 83/16/3 91/16/3 92/24/3
f 81/15/1 82/23/1 90/23/1 89/15/1
f 82/23/9 88/21/9 96/21/9 90/23/9
f 87/22/6 86/26/6 94/26/6 95/22/6
f 85/25/4 84/24/4 92/24/4 93/25/4
f 102/26/5 101/25/5 109/25/5 110/26/5
f 95/22/36 94/26/36 102/26/36 103/22/36
f 93/25/37 92/24/37 100/24/37 101/25/37
f 91/16/38 89/15/38 97/15/38 99/16/38
f 96/21/39 95/22/39 103/22/39 104/21/39
f 94/26/40 93/25/40 101/25/40 102/26/40
f 92/24/41 91/16/41 99/16/41 100/24/41
f 89/15/42 90/23/42 98/23/42 97/15/42
f 109/25/7 108/24/7 116/24/7 117/25/7
f 100/24/3 99/16/3 107/16/3 108/24/3
f 97/15/1 98/23/1 106/23/1 105/15/1
f 98/23/9 104/21/9 112/21/9 106/23/9
f 103/22/6 102/26/6 110/26/6 111/22/6
f 101/25/4 100/24/4 108/24/4 109/25/4
f 99/16/2 97/15/2 105/15/2 107/16/2
f 104/21/8 103/22/8 111/22/8 112/21/8
f 113/15/7 114/23/7 120/21/7 119/22/7 118/26/7 117/25/7 116/24/7 115/16/7
f 107/16/7 105/15/7 113/15/7 115/16/7
f 111/22/43 119/22/43 136/22/43 128/22/43
f 117/25/1 118/26/1 133/26/1 134/25/1
f 107/16/44 115/16/44 132/16/44 124/16/44
f 110/26/5 109/25/5 126/25/5 125/26/5
f 106/23/7 112/21/7 120/21/7 114/23/7
f 111/22/7 110/26/7 118/26/7 119/22/7
f 127/21/7 128/22/7 136/22/7 135/21/7
f 125/26/7 126/25/7 134/25/7 133/26/7
f 123/24/7 124/16/7 132/16/7 131/24/7
f 121/15/7 122/23/7 130/23/7 129/15/7
f 112/21/8 111/22/8 128/22/8 127/21/8
f 120/21/45 112/21/45 127/21/45 135/21/45
f 119/22/3 120/21/3 135/21/3 136/22/3
f 105/15/1 106/23/1 122/23/1 121/15/1
f 118/26/46 110/26/46 125/26/46 133/26/46
f 114/23/5 113/15/5 129/15/5 130/23/5
f 106/23/47 114/23/47 130/23/47 122/23/47
f 116/24/48 108/24/48 123/24/48 131/24/48
f 108/24/3 107/16/3 124/16/3 123/24/3
f 109/25/49 117/25/49 134/25/49 126/25/49
f 115/16/8 116/24/8 131/24/8 132/16/8
f 113/15/50 105/15/50 121/15/50 129/15/50
f 143/14/51 144/18/51 152/18/51 151/14/51
f 13/14/52 15/18/52 144/18/52 143/14/52
f 3/4/53 5/6/53 139/6/53 138/4/53
f 9/10/54 11/12/54 142/12/54 141/10/54
f 15/18/55 1/20/55 137/20/55 144/18/55
f 1/1/56 3/4/56 138/4/56 137/1/56
f 5/6/57 7/8/57 140/8/57 139/6/57
f 11/12/58 13/14/58 143/14/58 142/12/58
f 145/27/59 146/28/59 147/29/59 148/30/59 149/31/59 150/32/59 151/33/59 152/34/59
f 141/10/60 142/12/60 150/12/60 149/10/60
f 139/6/61 140/8/61 148/8/61 147/6/61
f 137/1/62 138/4/62 146/4/62 145/1/62
f 144/18/63 137/20/63 145/20/63 152/18/63
f 142/12/64 143/14/64 151/14/64 150/12/64
f 140/8/65 141/10/65 149/10/65 148/8/65
f 138/4/66 139/6/66 147/6/66 146/4/66
