# Blender 5.1.1
# www.blender.org
mtllib tuzluk.mtl
o Cylinder
v 0.000000 -1.000000 -1.000000
v 0.000000 1.088057 -0.646974
v 0.707107 -1.000000 -0.707107
v 0.457480 1.088057 -0.457480
v 1.000000 -1.000000 0.000000
v 0.646974 1.088057 0.000000
v 0.707107 -1.000000 0.707107
v 0.457480 1.088057 0.457480
v 0.000000 -1.000000 1.000000
v 0.000000 1.088057 0.646974
v -0.707107 -1.000000 0.707107
v -0.457480 1.088057 0.457480
v -1.000000 -1.000000 0.000000
v -0.646974 1.088057 0.000000
v -0.707107 -1.000000 -0.707107
v -0.457480 1.088057 -0.457480
v 0.457480 1.410811 -0.457480
v 0.000000 1.410811 -0.646974
v 0.646974 1.410811 0.000000
v 0.457480 1.410811 0.457480
v 0.000000 1.410811 0.646974
v -0.457480 1.410811 0.457480
v -0.646974 1.410811 0.000000
v -0.457480 1.410811 -0.457480
v 0.412062 1.410811 -0.412062
v 0.000000 1.410811 -0.582744
v 0.582744 1.410811 -0.000000
v 0.412062 1.410811 0.412062
v 0.000000 1.410811 0.582744
v -0.412062 1.410811 0.412062
v -0.582744 1.410811 -0.000000
v -0.412062 1.410811 -0.412062
v 0.412062 1.449257 -0.412062
v 0.000000 1.449257 -0.582744
v 0.582744 1.449257 -0.000000
v 0.412062 1.449257 0.412062
v 0.000000 1.449257 0.582744
v -0.412062 1.449257 0.412062
v -0.582744 1.449257 -0.000000
v -0.412062 1.449257 -0.412062
vn 0.3781 0.1543 -0.9128
vn 0.9128 0.1543 -0.3781
vn 0.9128 0.1543 0.3781
vn 0.3781 0.1543 0.9128
vn -0.3781 0.1543 0.9128
vn -0.9128 0.1543 0.3781
vn 0.9239 -0.0000 -0.3827
vn -0.9128 0.1543 -0.3781
vn -0.3781 0.1543 -0.9128
vn -0.0000 -1.0000 -0.0000
vn -0.0000 1.0000 -0.0000
vn -0.3827 -0.0000 0.9239
vn -0.3827 -0.0000 -0.9239
vn 0.3827 -0.0000 -0.9239
vn 0.9239 -0.0000 0.3827
vn -0.9239 -0.0000 0.3827
vn 0.3827 -0.0000 0.9239
vn -0.9239 -0.0000 -0.3827
vt 1.000000 0.500000
vt 1.000000 1.000000
vt 0.875000 1.000000
vt 0.875000 0.500000
vt 0.750000 1.000000
vt 0.750000 0.500000
vt 0.625000 1.000000
vt 0.625000 0.500000
vt 0.500000 1.000000
vt 0.500000 0.500000
vt 0.375000 1.000000
vt 0.375000 0.500000
vt 0.250000 1.000000
vt 0.250000 0.500000
vt 0.125000 1.000000
vt 0.125000 0.500000
vt 0.000000 1.000000
vt 0.000000 0.500000
vt 0.750000 0.490000
vt 0.919706 0.419706
vt 0.990000 0.250000
vt 0.919706 0.080294
vt 0.750000 0.010000
vt 0.580294 0.080294
vt 0.510000 0.250000
vt 0.580294 0.419706
vt 0.419706 0.419706
vt 0.250000 0.490000
vt 0.080294 0.419706
vt 0.010000 0.250000
vt 0.080294 0.080294
vt 0.250000 0.010000
vt 0.419706 0.080294
vt 0.490000 0.250000
s 0
f 1/1/1 2/2/1 4/3/1 3/4/1
f 3/4/2 4/3/2 6/5/2 5/6/2
f 5/6/3 6/5/3 8/7/3 7/8/3
f 7/8/4 8/7/4 10/9/4 9/10/4
f 9/10/5 10/9/5 12/11/5 11/12/5
f 11/12/6 12/11/6 14/13/6 13/14/6
f 6/5/7 4/3/7 17/3/7 19/5/7
f 13/14/8 14/13/8 16/15/8 15/16/8
f 15/16/9 16/15/9 2/17/9 1/18/9
f 1/19/10 3/20/10 5/21/10 7/22/10 9/23/10 11/24/10 13/25/10 15/26/10
f 23/13/11 22/11/11 30/11/11 31/13/11
f 12/11/12 10/9/12 21/9/12 22/11/12
f 2/17/13 16/15/13 24/15/13 18/17/13
f 4/3/14 2/2/14 18/2/14 17/3/14
f 8/7/15 6/5/15 19/5/15 20/7/15
f 14/13/16 12/11/16 22/11/16 23/13/16
f 10/9/17 8/7/17 20/7/17 21/9/17
f 16/15/18 14/13/18 23/13/18 24/15/18
f 27/5/7 25/3/7 33/3/7 35/5/7
f 21/9/11 20/7/11 28/7/11 29/9/11
f 19/5/11 17/3/11 25/3/11 27/5/11
f 24/15/11 23/13/11 31/13/11 32/15/11
f 22/11/11 21/9/11 29/9/11 30/11/11
f 20/7/11 19/5/11 27/5/11 28/7/11
f 17/3/11 18/2/11 26/2/11 25/3/11
f 18/17/11 24/15/11 32/15/11 26/17/11
f 33/27/11 34/28/11 40/29/11 39/30/11 38/31/11 37/32/11 36/33/11 35/34/11
f 32/15/18 31/13/18 39/13/18 40/15/18
f 30/11/12 29/9/12 37/9/12 38/11/12
f 28/7/15 27/5/15 35/5/15 36/7/15
f 25/3/14 26/2/14 34/2/14 33/3/14
f 26/17/13 32/15/13 40/15/13 34/17/13
f 31/13/16 30/11/16 38/11/16 39/13/16
f 29/9/17 28/7/17 36/7/17 37/9/17
